Coordinates
version=1
nRows=24
nColumns=38
inDegrees=no

Units are S.I. units (second, meters, Newtons, ...)
If the header above contains a line with 'inDegrees', this indicates whether rotational values are in degrees (yes) or radians (no).

endheader
time	pelvis_tilt	pelvis_list	pelvis_rotation	pelvis_tx	pelvis_ty	pelvis_tz	hip_flexion_r	hip_adduction_r	hip_rotation_r	knee_angle_r	ankle_angle_r	subtalar_angle_r	mtp_angle_r	hip_flexion_l	hip_adduction_l	hip_rotation_l	knee_angle_l	ankle_angle_l	subtalar_angle_l	mtp_angle_l	lumbar_extension	lumbar_bending	lumbar_rotation	arm_flex_r	arm_add_r	arm_rot_r	elbow_flex_r	pro_sup_r	wrist_flex_r	wrist_dev_r	arm_flex_l	arm_add_l	arm_rot_l	elbow_flex_l	pro_sup_l	wrist_flex_l	wrist_dev_l
0.083333	0.0936384	0.0601407	-0.0139858	0.752323	1.00753	-0.372648	0.41815	-0.0437436	-0.0858004	-0.377106	0.122563	-0.0493122	-0.0109204	-0.300511	0.0753088	-0.0447758	-1.22668	-0.167077	0.0217284	-0.0340679	-0.365864	0.0204397	-0.274013	-0.648745	-0.583856	-0.22231	1.75776	1.16741	0.0394043	-0.0111488	-0.347721	-0.61808	0.0426687	2.14166	1.67809	0.067436	-0.0572898
0.091667	0.115897	0.0511735	-0.0256552	0.752788	1.00413	-0.370267	0.396346	-0.024355	-0.0615027	-0.405743	0.0935699	-0.0493122	-0.0109204	-0.301732	0.0518258	-0.0800449	-1.33235	-0.147506	0.0217284	-0.0340679	-0.388466	0.0245725	-0.254699	-0.628839	-0.599802	-0.226068	1.75996	1.17786	0.0394043	-0.0111488	-0.374198	-0.605305	0.035638	2.12961	1.67666	0.067436	-0.0572898
0.1	0.135451	0.041222	-0.0375736	0.752797	0.999994	-0.368017	0.378226	-0.00352832	-0.0381338	-0.44465	0.0764894	-0.0493122	-0.0109204	-0.296914	0.0303226	-0.109596	-1.43535	-0.127048	0.0217284	-0.0340679	-0.409549	0.0295563	-0.233219	-0.605589	-0.614725	-0.228375	1.7608	1.18822	0.0394043	-0.0111488	-0.398064	-0.592517	0.0286471	2.11435	1.67488	0.067436	-0.0572898
0.108333	0.152224	0.0303489	-0.0497136	0.752375	0.995165	-0.365903	0.363741	0.0186406	-0.0157523	-0.493457	0.0713785	-0.0493122	-0.0109204	-0.285902	0.0108738	-0.133407	-1.53564	-0.105706	0.0217284	-0.0340679	-0.429038	0.035355	-0.209608	-0.57899	-0.628573	-0.229235	1.7603	1.19847	0.0394043	-0.0111488	-0.419273	-0.579731	0.0217632	2.09587	1.6727	0.067436	-0.0572898
0.116667	0.166014	0.0187321	-0.0619936	0.751524	0.989747	-0.363952	0.352701	0.0418482	0.00548344	-0.550991	0.078227	-0.0493122	-0.0109204	-0.268274	-0.00630502	-0.151438	-1.63308	-0.0834862	0.0217284	-0.0340679	-0.446719	0.0418543	-0.183973	-0.549064	-0.641193	-0.22868	1.75845	1.20859	0.0394043	-0.0111488	-0.437693	-0.566992	0.0151912	2.07416	1.66995	0.067436	-0.0572898
0.125	0.176523	0.00669801	-0.0742579	0.750238	0.983955	-0.362201	0.344647	0.065518	0.0253239	-0.614985	0.0966439	-0.0493122	-0.0109204	-0.243365	-0.0208444	-0.163641	-1.72735	-0.0603945	0.0217284	-0.0340679	-0.462239	0.0488443	-0.156528	-0.515919	-0.652307	-0.22679	1.75534	1.21856	0.0394043	-0.0111488	-0.453118	-0.554381	0.00930085	2.04924	1.66643	0.067436	-0.0572898
0.133333	0.183469	-0.00528628	-0.0862581	0.748528	0.978082	-0.360692	0.338712	0.0887935	0.0434761	-0.682064	0.12554	-0.0493122	-0.0109204	-0.210469	-0.0322581	-0.170004	-1.8178	-0.0364472	0.0217284	-0.0340679	-0.475189	0.0560236	-0.127624	-0.479826	-0.661524	-0.223721	1.75117	1.22831	0.0394043	-0.0111488	-0.465325	-0.542027	0.0045919	2.02126	1.66192	0.067436	-0.0572898
0.141667	0.186745	-0.0166624	-0.0976508	0.74644	0.972411	-0.359457	0.333548	0.110608	0.0596926	-0.748066	0.163008	-0.0493122	-0.0109204	-0.169137	-0.0400465	-0.170614	-1.90344	-0.0116968	0.0217284	-0.0340679	-0.485245	0.0630217	-0.0977517	-0.441277	-0.668392	-0.219713	1.74636	1.23765	0.0394043	-0.0111488	-0.474194	-0.530106	0.00159902	1.99059	1.6563	0.067436	-0.0572898
0.15	0.186554	-0.0268367	-0.108028	0.744051	0.967165	-0.358514	0.327372	0.129807	0.0738583	-0.808614	0.206497	-0.0493122	-0.0109204	-0.119478	-0.0438312	-0.165759	-1.98288	0.0137371	0.0217284	-0.0340679	-0.492305	0.069427	-0.067531	-0.401017	-0.672467	-0.215081	1.74157	1.24632	0.0394043	-0.0111488	-0.479839	-0.518847	0.000762248	1.95796	1.64963	0.067436	-0.0572898
0.158333	0.183453	-0.0352437	-0.116979	0.741445	0.962531	-0.35786	0.318171	0.145288	0.086023	-0.859752	0.253174	-0.0493122	-0.0109204	-0.0623021	-0.0434681	-0.156014	-2.05451	0.0396318	0.0217284	-0.0340679	-0.496544	0.0748031	-0.0376511	-0.359999	-0.673386	-0.210189	1.73767	1.25411	0.0394043	-0.0111488	-0.482708	-0.508534	0.00230622	1.92457	1.64212	0.067436	-0.0572898
0.166667	0.178273	-0.0414129	-0.124179	0.738726	0.958688	-0.357472	0.303992	0.156119	0.096377	-0.898434	0.300283	-0.0493122	-0.0109204	0.000904416	-0.0391165	-0.142297	-2.11659	0.0656288	0.0217284	-0.0340679	-0.498365	0.0787043	-0.00878725	-0.319292	-0.670952	-0.205378	1.73562	1.26095	0.0394043	-0.0111488	-0.483618	-0.499491	0.00616926	1.89202	1.63414	0.067436	-0.0572898
0.175	0.171942	-0.0450109	-0.129474	0.73603	0.955799	-0.357299	0.28328	0.161635	0.105195	-0.922792	0.345342	-0.0493122	-0.0109204	0.0682028	-0.0312479	-0.12587	-2.16748	0.0912281	0.0217284	-0.0340679	-0.498268	0.0806976	0.0185056	-0.279944	-0.665195	-0.200868	1.73636	1.26701	0.0394043	-0.0111488	-0.483682	-0.49205	0.0120158	1.86219	1.62624	0.067436	-0.0572898
0.183333	0.165303	-0.0458652	-0.132945	0.73351	0.953988	-0.357271	0.255111	0.161508	0.112797	-0.932146	0.386164	-0.0493122	-0.0109204	0.137481	-0.0206137	-0.108261	-2.20582	0.115823	0.0217284	-0.0340679	-0.496692	0.080413	0.0438808	-0.24286	-0.656424	-0.196641	1.74062	1.27248	0.0394043	-0.0111488	-0.484161	-0.486509	0.0193337	1.83695	1.61897	0.067436	-0.0572898
0.191667	0.158944	-0.0439597	-0.134902	0.731321	0.953315	-0.357313	0.219306	0.155757	0.119514	-0.926828	0.420777	-0.0493122	-0.0109204	0.206733	-0.00815438	-0.0911275	-2.2307	0.138767	0.0217284	-0.0340679	-0.493902	0.0775902	0.0672414	-0.208713	-0.645235	-0.192378	1.74879	1.27751	0.0394043	-0.0111488	-0.486263	-0.483098	0.027575	1.81785	1.61283	0.067436	-0.0572898
0.2	0.153136	-0.0394214	-0.135828	0.729593	0.953775	-0.357359	0.176386	0.144719	0.125633	-0.907916	0.44733	-0.0493122	-0.0109204	0.274257	0.00512426	-0.0760585	-2.24166	0.159465	0.0217284	-0.0340679	-0.489945	0.0721189	0.0887215	-0.177906	-0.632468	-0.187447	1.76093	1.28211	0.0394043	-0.0111488	-0.490969	-0.481952	0.0362877	1.80584	1.60819	0.067436	-0.0572898
0.208333	0.147866	-0.0325077	-0.136262	0.728422	0.955307	-0.357359	0.127399	0.128984	0.131343	-0.876944	0.464048	-0.0493122	-0.0109204	0.338727	0.0182741	-0.0643686	-2.23875	0.177456	0.0217284	-0.0340679	-0.484694	0.0640731	0.108616	-0.150583	-0.619122	-0.18099	1.77672	1.28624	0.0394043	-0.0111488	-0.498909	-0.483103	0.0451908	1.8011	1.60527	0.067436	-0.0572898
0.216667	0.142941	-0.0235957	-0.136684	0.72786	0.957809	-0.357288	0.0736972	0.109338	0.136644	-0.835675	0.469243	-0.0493122	-0.0109204	0.399167	0.0305068	-0.0569166	-2.22246	0.192476	0.0217284	-0.0340679	-0.477954	0.0537274	0.127284	-0.126676	-0.606238	-0.172071	1.7956	1.28983	0.0394043	-0.0111488	-0.510327	-0.486489	0.0541726	1.80312	1.60414	0.067436	-0.0572898
0.225	0.138108	-0.0131646	-0.137419	0.727919	0.961148	-0.357141	0.0167343	0.0866858	0.141286	-0.785956	0.461388	-0.0493122	-0.0109204	0.454886	0.0412657	-0.0540004	-2.19362	0.204475	0.0217284	-0.0340679	-0.469571	0.0415473	0.145063	-0.105967	-0.594769	-0.159868	1.81687	1.29296	0.0394043	-0.0111488	-0.525118	-0.491961	0.0632274	1.81078	1.60476	0.067436	-0.0572898
0.233333	0.133143	-0.00176041	-0.138596	0.728574	0.965174	-0.35693	-0.0420519	0.0619806	0.144714	-0.729689	0.439261	-0.0493122	-0.0109204	0.505406	0.0502618	-0.0553517	-2.15327	0.213595	0.0217284	-0.0340679	-0.459508	0.0281469	0.162199	-0.0881656	-0.585481	-0.143844	1.83977	1.29598	0.0394043	-0.0111488	-0.542912	-0.499285	0.0723682	1.82265	1.60702	0.067436	-0.0572898
0.241667	0.127934	0.0100474	-0.140145	0.729767	0.969737	-0.356683	-0.101337	0.0361602	0.146116	-0.668839	0.402142	-0.0493122	-0.0109204	0.550367	0.057498	-0.060208	-2.10255	0.220136	0.0217284	-0.0340679	-0.447908	0.014228	0.178816	-0.0729768	-0.578891	-0.12387	1.86362	1.29935	0.0394043	-0.0111488	-0.563165	-0.508154	0.0815593	1.83719	1.61067	0.067436	-0.0572898
0.25	0.122492	0.0217125	-0.141843	0.731421	0.974691	-0.35644	-0.159921	0.010096	0.144511	-0.605506	0.350069	-0.0493122	-0.0109204	0.58948	0.0632459	-0.0674606	-2.04257	0.224506	0.0217284	-0.0340679	-0.435091	0.000505162	0.194909	-0.0601629	-0.575249	-0.100263	1.88785	1.30365	0.0394043	-0.0111488	-0.585248	-0.518194	0.0906823	1.85297	1.61531	0.067436	-0.0572898
0.258333	0.116933	0.0327496	-0.143363	0.73344	0.979893	-0.356246	-0.216709	-0.015434	0.138914	-0.541985	0.284077	-0.0493122	-0.0109204	0.622515	0.067967	-0.0758399	-1.97432	0.227175	0.0217284	-0.0340679	-0.421512	-0.0123597	0.210372	-0.0495806	-0.57456	-0.0737405	1.91205	1.30941	0.0394043	-0.0111488	-0.608507	-0.528986	0.0995369	1.86881	1.62043	0.067436	-0.0572898
0.266667	0.111427	0.0427513	-0.144354	0.735723	0.985204	-0.356148	-0.270681	-0.0397379	0.128534	-0.480786	0.206356	-0.0493122	-0.0109204	0.649303	0.0721843	-0.0841011	-1.89863	0.228637	0.0217284	-0.0340679	-0.407693	-0.0238006	0.225041	-0.0411889	-0.576619	-0.0453079	1.93595	1.31701	0.0394043	-0.0111488	-0.632313	-0.540093	0.107869	1.8838	1.62549	0.067436	-0.0572898
0.275	0.106139	0.0513778	-0.144501	0.738159	0.990485	-0.356185	-0.320883	-0.0621808	0.112993	-0.424575	0.120233	-0.0493122	-0.0109204	0.66976	0.0763267	-0.0911807	-1.81616	0.229373	0.0217284	-0.0340679	-0.394152	-0.0333646	0.23875	-0.0350255	-0.58106	-0.0160963	1.95935	1.32661	0.0394043	-0.0111488	-0.656086	-0.551087	0.115404	1.89734	1.62995	0.067436	-0.0572898
